<svg width="64" height="64" viewBox="0 0 64 64" fill="none" xmlns="http://www.w3.org/2000/svg">
<path d="M36.7273 34.7273H39.3182V39.5982L43.5327 42.0336L42.2373 44.2791L36.7273 41.1009V34.7273ZM43.6364 26.0909H19.4545V45.0909H27.5209C26.7782 43.5191 26.3636 41.7573 26.3636 39.9091C26.3636 36.7024 27.6375 33.627 29.905 31.3595C32.1725 29.092 35.2478 27.8182 38.4545 27.8182C40.3027 27.8182 42.0645 28.2327 43.6364 28.9755V26.0909ZM19.4545 48.5455C18.5383 48.5455 17.6597 48.1815 17.0118 47.5336C16.364 46.8858 16 46.0071 16 45.0909V20.9091C16 18.9918 17.5373 17.4545 19.4545 17.4545H21.1818V14H24.6364V17.4545H38.4545V14H41.9091V17.4545H43.6364C44.5526 17.4545 45.4312 17.8185 46.0791 18.4664C46.7269 19.1142 47.0909 19.9929 47.0909 20.9091V31.4455C49.2327 33.6218 50.5455 36.61 50.5455 39.9091C50.5455 43.1158 49.2716 46.1912 47.0041 48.4587C44.7366 50.7261 41.6613 52 38.4545 52C35.1555 52 32.1673 50.6873 29.9909 48.5455H19.4545ZM38.4545 31.5318C36.2328 31.5318 34.102 32.4144 32.5309 33.9855C30.9599 35.5565 30.0773 37.6873 30.0773 39.9091C30.0773 44.5382 33.8255 48.2864 38.4545 48.2864C39.5547 48.2864 40.644 48.0697 41.6604 47.6487C42.6768 47.2277 43.6003 46.6106 44.3782 45.8327C45.1561 45.0548 45.7731 44.1313 46.1941 43.1149C46.6151 42.0986 46.8318 41.0092 46.8318 39.9091C46.8318 35.28 43.0836 31.5318 38.4545 31.5318Z" fill="#1E1E1E"/>
</svg>
