<svg width="64" height="64" viewBox="0 0 64 64" fill="none" xmlns="http://www.w3.org/2000/svg">
<path fill-rule="evenodd" clip-rule="evenodd" d="M28.4595 41.6216H47.7838C48.7489 41.6228 49.5757 41.2791 50.2644 40.5904C50.953 39.9018 51.2974 39.0743 51.2974 38.1081V20.5405L40.7568 10H28.4595C27.4945 9.99883 26.6676 10.3426 25.979 11.0312C25.2903 11.7199 24.946 12.5473 24.946 13.5135V38.1081C24.9448 39.0732 25.2886 39.9 25.9772 40.5886C26.6659 41.2773 27.4933 41.6216 28.4595 41.6216ZM39.0001 20.3783V22.2973H47.7838V24.1082H37.7027V20.3783H39.0001ZM47.7838 27.5136H37.7027V31.2432H47.7838V27.5136ZM34.2973 20.3783V24.1082H28.4595V20.3783H34.2973ZM39.0001 16.9729H37.7027V13.5135H39.0001V16.9729ZM34.2973 16.9729V13.5135H28.4595V16.9729H34.2973ZM34.2973 31.2432V27.5136H28.4595V31.2432H34.2973ZM28.4595 34.6486H34.2973V38.1081H28.4595V34.6486ZM47.7838 38.1081H37.7027V34.6486H47.7838V38.1081ZM18.5135 20.3784H22.7838V23.8919H18.5135V48.4865H37.8378V44.2162H41.3514V48.4865C41.3514 49.4527 41.007 50.2801 40.3184 50.9688C39.6297 51.6574 38.8029 52.0012 37.8378 52H18.5135C17.5473 52 16.7199 51.6557 16.0312 50.967C15.3426 50.2784 14.9988 49.4515 15 48.4865V23.8919C15 22.9257 15.3443 22.0982 16.033 21.4096C16.7216 20.7209 17.5485 20.3772 18.5135 20.3784Z" fill="#1E1E1E"/>
</svg>
