<svg width="64" height="64" viewBox="0 0 64 64" fill="none" xmlns="http://www.w3.org/2000/svg">
<path d="M31.2592 13.3333C22.0918 13.3333 14.6666 17.0458 14.6666 21.6295C14.6666 26.2133 22.0918 29.9258 31.2592 29.9258C32.2963 29.9258 33.3333 29.8636 34.3703 29.7599V26.8147H40.3644L38.2903 24.7407L45.5703 17.4814C42.6666 14.9925 37.357 13.3333 31.2592 13.3333ZM45.6118 21.7955L42.6666 24.7407L47.8518 29.9258H37.4814V34.074H47.8518L42.6666 39.2592L45.6118 42.2044L55.8163 31.9999M14.6666 25.7777V31.9999C14.6666 36.5836 22.0918 40.2962 31.2592 40.2962C33.6859 40.2962 35.9466 39.9851 38 39.5288L40.3437 37.1851H34.3703V33.9081C33.3333 34.0118 32.2963 34.074 31.2592 34.074C22.0918 34.074 14.6666 30.3614 14.6666 25.7777ZM14.6666 36.1481V42.3703C14.6666 46.954 22.0918 50.6666 31.2592 50.6666C37.357 50.6666 42.6666 49.0073 45.5703 46.5184L41.6296 42.5777C38.7466 43.7392 35.2 44.4444 31.2592 44.4444C22.0918 44.4444 14.6666 40.7318 14.6666 36.1481Z" fill="#1E1E1E"/>
</svg>
