<svg width="255" height="256" viewBox="0 0 255 256" fill="none" xmlns="http://www.w3.org/2000/svg">
<path d="M29.138 72.6241C36.4224 50.8369 50.9914 36.3121 72.8448 27.234V0H91.0559V25.4184H98.3404C118.373 25.4184 134.763 32.6808 149.332 47.2057L156.616 54.4681L182.112 45.3901C187.575 43.5745 193.038 41.7589 200.323 41.7589C211.25 41.7589 222.176 45.3901 231.282 52.6525C242.209 59.9149 247.672 68.9929 251.314 78.0709C254.956 90.7801 254.956 101.674 251.314 114.383C245.851 127.092 240.388 136.17 231.282 141.617C238.566 168.851 233.103 192.454 213.071 212.426C198.502 226.95 182.112 234.213 162.079 234.213C152.974 234.213 147.511 234.213 142.047 232.397C131.121 246.922 116.552 256 98.3404 256C92.8771 256 85.5926 256 80.1292 254.184C69.2025 250.553 61.9181 243.291 54.6336 234.213C47.3491 223.319 43.7069 214.241 43.7069 203.348C43.7069 196.085 43.7069 190.638 45.528 185.191L54.6336 156.142L43.7069 148.879C29.138 134.355 21.8535 114.383 23.6746 92.5958H0.000104277V72.6241H29.138ZM205.786 114.383C216.713 108.936 220.355 101.674 216.713 90.7801C213.071 79.8865 205.786 76.2553 194.86 79.8865L136.584 101.674C165.722 116.199 187.575 119.83 205.786 114.383ZM91.0559 216.057C101.983 219.688 109.267 216.057 114.73 205.163C120.194 187.007 116.552 165.22 101.983 136.17L80.1292 192.454C76.487 205.163 80.1292 212.426 91.0559 216.057ZM69.2025 119.83L80.1292 90.7801V88.9645L85.5926 83.5177H87.4137L116.552 72.6241C109.267 67.1773 101.983 63.5461 92.8771 63.5461C83.7715 63.5461 74.6659 67.1773 67.3814 74.4397C60.097 81.7021 56.4547 88.9645 56.4547 98.0425C60.097 103.489 63.7392 112.567 69.2025 119.83Z" fill="#FFF790"/>
</svg>
