<svg width="64" height="64" viewBox="0 0 64 64" fill="none" xmlns="http://www.w3.org/2000/svg">
<path d="M27.6682 31.9999L17.4637 42.2044L14.5186 39.2592L19.7037 34.074H9.33337V29.9258H19.7037L14.5186 24.7407L17.4637 21.7955L27.6682 31.9999ZM34.2223 13.3333C27.1497 13.3333 21.1141 15.5525 18.7289 18.6636L19.7037 19.5555L21.84 21.7747C21.7778 21.7333 21.7778 21.6295 21.7778 21.6295C21.7778 20.5925 26.1956 17.4814 34.2223 17.4814C42.2489 17.4814 46.6667 20.5925 46.6667 21.6295C46.6667 22.6666 42.2489 25.7777 34.2223 25.7777C28.7882 25.7777 25.0549 24.3466 23.1882 23.1229L29.6593 29.594C31.1112 29.8014 32.646 29.9258 34.2223 29.9258C39.1793 29.9258 43.6178 28.8266 46.6667 27.1051V32.9333C43.9704 34.9036 39.2415 36.1481 34.2223 36.1481C32.2312 36.1481 30.2815 35.9407 28.4978 35.5881L25.0756 38.9895C27.8134 39.8192 30.9245 40.2962 34.2223 40.2962C38.9512 40.2962 43.3274 39.3629 46.6667 37.7451V42.3703C46.6667 43.4073 42.2489 46.5184 34.2223 46.5184C26.1956 46.5184 21.7778 43.4073 21.7778 42.3703V42.2873L19.7037 44.4444L18.7497 45.3362C21.1349 48.4473 27.1704 50.6666 34.2223 50.6666C43.3689 50.6666 50.8149 46.954 50.8149 42.3703V21.6295C50.8149 17.0458 43.3897 13.3333 34.2223 13.3333Z" fill="#1E1E1E"/>
</svg>
