<svg width="570" height="510" viewBox="0 0 570 510" fill="none" xmlns="http://www.w3.org/2000/svg">
<path d="M151.154 311.958C159.83 319.879 203.114 353.451 285.911 353.451C368.708 353.451 413.973 316.107 417.274 311.204C418.971 302.245 422.743 249.059 415.765 206.529C408.787 163.999 400.865 93.0837 281.479 93.0837C162.093 93.0837 158.133 174.938 153.889 197.004C149.645 219.26 148.419 295.078 151.154 311.958Z" fill="#FFCC01"/>
<path d="M159.453 352.508C165.017 356.846 204.812 381.742 253.472 383.062C264.693 392.303 284.591 403.808 284.591 403.808L315.428 382.59C333.251 382.213 364.559 379.007 408.315 354.394C406.618 361.561 401.431 381.741 398.696 384.853C394.453 388.72 363.616 408.523 320.897 408.146C318.823 410.032 284.497 435.399 284.497 435.399L248.568 408.146C233.763 408.617 195.382 403.525 169.826 384.759C167.751 380.798 159.453 352.508 159.453 352.508Z" fill="#FFCC01"/>
<path d="M416.236 312.524C415.105 313.656 413.407 315.259 410.861 317.145C411.144 245.193 402.468 182.671 388.417 153.248C374.461 124.015 345.227 107.229 325.141 98.2705C343.058 102.325 356.638 107.323 367.011 112.604C384.362 121.469 392.85 131.088 398.225 138.537C405.58 148.816 412.181 173.335 416.236 209.358V209.452C416.896 215.393 417.462 221.523 418.028 228.03C420.291 255.943 418.877 287.723 416.236 312.524Z" fill="#FFF790"/>
<path d="M367.388 129.296C363.239 129.296 361.636 132.785 361.636 137.594C361.636 144.761 373.235 165.602 383.891 165.602C396.433 165.602 386.343 143.441 383.608 139.197C380.968 135.048 373.329 129.296 367.388 129.296Z" fill="#FFF790"/>
<path d="M355.883 149.948C353.62 149.948 353.054 152.4 353.054 154.286C353.054 159.001 358.524 166.357 362.767 166.357C365.313 166.357 365.691 164.848 365.691 163.15C365.691 158.152 359.561 149.948 355.883 149.948Z" fill="#FFF790"/>
<path d="M185.763 394.189C195.759 398.904 206.415 402.205 216.222 404.374C213.865 396.735 211.413 386.928 208.961 375.612C195.193 371.463 183.499 366.276 174.824 361.75C178.596 375.329 182.556 386.457 185.763 394.189Z" fill="#F69421"/>
<path d="M193.401 246.324C193.118 186.348 211.319 145.893 215.751 136.18C218.014 131.276 219.24 122.506 212.262 122.506C204.34 122.506 184.725 140.235 180.388 149.099C169.92 170.694 162.187 196.344 162.187 273.2C162.187 290.552 163.885 307.526 166.431 323.275C175.012 328.65 186.894 334.779 202.266 340.155C197.362 309.129 193.496 274.332 193.401 246.324Z" fill="#F69421"/>
<path d="M283.176 162.207C341.738 162.207 391.152 173.995 398.413 207.189C400.299 215.865 399.733 262.639 398.602 269.711C392.661 308.281 339.852 316.673 278.65 316.673C226.784 316.673 175.861 304.791 170.674 269.145C169.543 261.507 169.071 221.994 170.863 209.83C175.484 178.804 216.034 162.207 283.176 162.207Z" fill="#1E1E1E"/>
<path d="M215.751 278.764C215.751 278.764 224.049 268.485 238.477 268.485C252.906 268.485 261.11 276.595 261.11 276.595C261.11 276.595 265.448 265.939 265.448 246.041C265.448 226.144 260.638 199.928 233.951 199.928C212.073 199.928 206.321 220.203 206.321 239.063C206.509 255.754 211.224 272.446 215.751 278.764Z" fill="#6AC6FF"/>
<path d="M353.903 278.764C353.903 278.764 345.605 268.485 331.176 268.485C316.748 268.485 308.544 276.595 308.544 276.595C308.544 276.595 304.206 265.939 304.206 246.041C304.206 226.144 309.015 199.928 335.703 199.928C357.581 199.928 363.333 220.203 363.333 239.063C363.239 255.754 358.524 272.446 353.903 278.764Z" fill="#6AC6FF"/>
<path d="M176.238 401.545C151.908 442.378 132.011 449.828 116.074 449.828C100.137 449.828 81.2764 438.889 81.2764 410.315C81.2764 366.37 121.449 341.663 138.518 330.159C27.3358 298.662 21.772 248.399 21.772 231.896C21.772 214.733 29.8819 184.745 66.9425 184.745C94.3844 184.745 117.583 201.437 124.655 208.415C124.655 208.415 122.675 222.56 123.807 241.609C124.938 260.658 129.37 290.08 129.37 290.08L150.305 300.925L153.04 334.025C152.191 333.836 151.343 333.553 150.494 333.365L154.737 334.874L162.187 369.577L176.238 401.545Z" fill="#87E86B"/>
<path d="M147.382 333.271C122.392 349.113 106.549 370.803 106.549 391.077C106.549 411.447 123.147 417.388 130.408 417.388C137.669 417.388 158.981 411.635 169.166 388.626C165.205 380.987 152.757 336.382 152.757 333.931C151.06 333.648 147.382 333.271 147.382 333.271Z" fill="#1E1E1E" fill-opacity="0.4"/>
<path d="M122.486 228.313C119.091 224.918 106.361 219.26 92.0268 219.26C77.6929 219.26 61.0958 230.67 61.0958 252.548C61.0958 280.273 90.2351 309.978 151.437 326.764C151.06 322.331 148.608 297.813 148.608 297.813C148.608 297.813 127.673 291.495 127.673 289.232C127.767 286.968 120.695 244.627 122.486 228.313Z" fill="#1E1E1E" fill-opacity="0.4"/>
<path d="M149.174 299.605C144.176 298.379 128.333 291.212 128.05 289.703C123.052 265.09 119.563 215.582 128.05 189.272C128.616 187.386 150.683 180.03 157.189 179.37C151.437 214.45 146.628 254.529 149.174 299.605Z" fill="#AFB2AE"/>
<path d="M152.003 208.981C145.307 208.415 128.239 212.187 123.052 215.016C121.921 224.352 123.618 264.242 124.184 267.259C127.579 269.334 143.421 272.069 147.288 272.257C148.419 263.299 152.003 208.981 152.003 208.981Z" fill="#1E1E1E" fill-opacity="0.4"/>
<path d="M430.57 330.064C447.639 341.569 487.811 366.37 487.811 410.221C487.811 438.794 468.857 449.733 453.014 449.733C437.171 449.733 417.179 442.283 392.849 401.451L406.995 369.388L414.445 334.685L418.688 333.176C417.839 333.365 416.991 333.648 416.142 333.836L418.877 300.736L439.812 289.892C439.812 289.892 444.338 260.375 445.376 241.42C446.507 222.372 444.527 208.226 444.527 208.226C451.599 201.248 474.703 184.557 502.24 184.557C539.3 184.557 547.41 214.544 547.41 231.707C547.316 248.305 541.658 298.567 430.57 330.064Z" fill="#87E86B"/>
<path d="M421.706 333.271C446.696 349.113 462.539 370.803 462.539 391.077C462.539 411.447 445.941 417.388 438.68 417.388C431.419 417.388 410.107 411.635 399.922 388.626C403.883 380.987 416.331 336.382 416.331 333.931C417.934 333.648 421.706 333.271 421.706 333.271Z" fill="#1E1E1E" fill-opacity="0.4"/>
<path d="M446.507 228.313C449.902 224.918 462.633 219.26 476.967 219.26C491.301 219.26 507.898 230.67 507.898 252.548C507.898 280.273 478.758 309.978 417.557 326.764C417.934 322.331 420.386 297.813 420.386 297.813C420.386 297.813 441.321 291.495 441.321 289.232C441.226 286.968 448.299 244.627 446.507 228.313Z" fill="#1E1E1E" fill-opacity="0.4"/>
<path d="M419.82 299.605C424.818 298.379 440.66 291.212 440.943 289.703C445.941 265.09 449.431 215.582 440.943 189.272C440.378 187.386 418.311 180.03 411.804 179.37C417.556 214.45 422.366 254.529 419.82 299.605Z" fill="#AFB2AE"/>
<path d="M416.991 208.981C423.686 208.415 440.755 212.187 445.941 215.016C447.073 224.352 445.376 264.242 444.81 267.259C441.415 269.334 425.572 272.069 421.706 272.257C420.574 263.299 416.991 208.981 416.991 208.981Z" fill="#1E1E1E" fill-opacity="0.4"/>
<path d="M347.585 23.772C335.42 23.772 323.726 36.3141 323.726 48.7619C323.726 61.2098 332.402 74.5063 347.113 74.5063C359.844 74.5063 372.009 63.2844 372.009 48.2904C372.009 33.2022 360.504 23.772 347.585 23.772Z" fill="#FFCC01"/>
<path d="M356.355 32.9193C361.73 32.9193 365.691 38.4831 365.691 42.9153C365.691 47.3475 363.05 54.3258 355.223 54.3258C347.962 54.3258 345.887 48.5734 345.887 44.2355C345.887 39.8976 348.528 32.9193 356.355 32.9193Z" fill="#FFF68F"/>
<path d="M220.277 23.772C232.442 23.772 244.136 36.3141 244.136 48.7619C244.136 61.2098 235.46 74.5063 220.749 74.5063C208.018 74.5063 195.853 63.2844 195.853 48.2904C195.853 33.2022 207.358 23.772 220.277 23.772Z" fill="#FFCC01"/>
<path d="M224.898 31.5991C232.254 31.5991 235.554 37.3515 235.554 42.1609C235.554 46.9703 233.385 52.5341 226.313 52.5341C219.24 52.5341 215.657 46.3102 215.657 41.3122C215.562 36.2199 218.769 31.5991 224.898 31.5991Z" fill="#FFF68F"/>
<path d="M551.088 231.802C551.088 208.321 538.263 180.879 502.145 180.879C479.041 180.879 458.767 192.006 447.545 200.682C446.79 196.061 445.753 191.818 444.527 188.046C443.961 186.443 443.49 184.839 429.816 180.219C425.006 178.616 418.594 176.635 414.35 175.787C413.219 170.883 412.087 166.451 410.861 162.49C403.317 137.123 386.154 117.98 359.844 105.532C355.789 103.551 351.64 101.854 347.49 100.439L353.903 77.4298C366.256 74.1292 375.781 62.1529 375.781 48.2905C375.781 32.1649 363.71 20 347.679 20C333.439 20 320.049 33.9567 320.049 48.762C320.049 58.3808 324.575 68.2825 332.496 73.752L326.744 94.4984C314.579 91.9523 303.829 91.1035 296.85 90.9149C290.155 90.7263 276.387 90.7263 269.22 91.1035C263.562 91.3864 254.415 92.1408 243.664 94.2155L237.535 72.2432C244.324 66.5851 248.002 57.5321 248.002 48.762C248.002 33.9567 234.517 20 220.372 20C204.34 20 192.27 32.1649 192.27 48.2905C192.27 62.6244 202.454 75.0722 215.562 77.807L221.786 100.157C195.665 109.209 167.657 127.032 157.095 162.49C155.869 166.545 154.738 171.071 153.606 176.069C149.362 177.012 143.61 178.71 139.272 180.219C125.598 184.839 125.033 186.443 124.561 188.046C123.335 191.818 122.392 196.156 121.543 200.682C110.321 192.006 90.0466 180.879 66.9426 180.879C30.8251 180.879 18 208.321 18 231.802C18 257.075 33.1826 301.962 129.748 331.384C110.416 344.492 77.5045 369.388 77.5045 410.221C77.5045 424.177 81.8423 435.682 90.1409 443.509C96.9306 449.922 106.455 453.6 116.074 453.6C129.842 453.6 150.777 448.884 176.144 408.995C176.144 409.089 176.238 409.183 176.333 409.278C195.099 439.643 221.409 458.126 254.603 464.35C264.882 475.1 281.008 487.642 281.762 488.208L284.12 490L286.383 488.208C287.043 487.642 303.169 475.1 313.353 464.444C346.547 458.22 372.858 439.643 391.624 409.372C391.907 408.995 392.095 408.618 392.284 408.24C417.839 448.884 439.057 453.694 452.92 453.694C462.633 453.694 472.063 450.016 478.853 443.604C487.151 435.871 491.489 424.366 491.489 410.315C491.489 369.482 458.578 344.681 439.246 331.479C535.905 301.962 551.088 256.98 551.088 231.802ZM448.77 209.452C456.786 202.38 477.721 188.423 502.145 188.423C514.122 188.423 522.609 191.724 528.644 196.627C524.589 207.661 515.348 229.539 448.299 264.336C449.996 246.89 450.562 226.709 448.77 209.452ZM437.737 191.346C445.187 215.959 442.452 262.356 437.549 287.723C435.191 289.232 428.307 292.532 423.215 294.512C423.592 288.666 423.875 283.102 423.969 277.821C424.818 241.326 421.046 208.226 416.236 183.991C423.403 185.783 434.625 189.649 437.737 191.346ZM327.498 48.762C327.498 38.2002 337.683 27.5441 347.585 27.5441C357.864 27.5441 368.142 34.6168 368.142 48.2905C368.142 58.8523 361.447 66.6794 353.714 69.5084C351.545 70.3571 349.282 70.7343 347.113 70.7343C342.492 70.7343 338.532 69.1312 335.514 66.5851C330.327 62.3415 327.498 55.4575 327.498 48.762ZM220.749 70.7343C218.957 70.7343 217.165 70.4514 215.374 69.8856C207.075 67.3395 199.625 59.3238 199.625 48.1962C199.625 34.6168 209.998 27.4498 220.183 27.4498C230.179 27.4498 240.269 38.2002 240.269 48.6677C240.269 54.7973 237.912 61.0213 233.668 65.2649C230.462 68.5654 226.124 70.7343 220.749 70.7343ZM164.168 164.565C173.692 132.313 199.342 115.811 223.578 107.323L231.782 136.934C233.197 141.932 237.723 145.233 242.627 145.233C243.664 145.233 244.607 145.138 245.644 144.856C251.68 143.158 255.169 136.934 253.566 130.899L245.456 101.477C255.452 99.5907 264.033 98.8363 269.314 98.5534C273.369 98.3648 279.593 98.2705 285.346 98.2705C289.589 98.2705 293.644 98.2705 296.379 98.4591C302.508 98.6477 312.693 99.4021 324.575 101.76L316.465 130.993C314.862 136.746 318.257 142.781 324.009 144.384C324.952 144.667 325.99 144.761 326.933 144.761C331.648 144.761 336.08 141.649 337.4 136.84L345.51 107.606C369.463 116.188 394.17 132.691 403.6 164.659C412.181 193.515 420.951 255.094 413.785 314.787C401.431 325.443 357.864 353.64 285.911 353.64C209.998 353.64 167.28 325.443 153.983 314.599C146.911 254.811 155.681 193.421 164.168 164.565ZM131.256 191.346C134.274 189.743 144.459 186.16 151.626 184.179C146.816 208.415 143.044 241.421 143.893 277.727C143.987 282.913 144.27 288.289 144.647 293.947C139.744 291.966 133.614 289.043 131.445 287.628C126.541 262.356 123.901 215.959 131.256 191.346ZM66.8483 188.423C91.2725 188.423 112.302 202.38 120.317 209.452C118.526 226.709 118.997 246.89 120.695 264.336C53.6461 229.539 44.4045 207.661 40.3495 196.627C46.2905 191.724 54.872 188.423 66.8483 188.423ZM54.6834 286.214C30.6365 266.033 25.4499 245.664 25.4499 231.802C25.4499 227.558 26.11 213.602 34.5028 202.568C39.5008 214.733 52.2315 235.762 108.341 266.316C98.5337 287.251 78.1645 286.78 60.1529 286.308C58.2669 286.308 56.3808 286.214 54.6834 286.214ZM64.868 293.947C65.811 293.947 66.754 293.947 67.697 293.947C84.7657 293.947 104.663 291.495 114.942 269.805C117.111 270.937 119.28 272.069 121.543 273.2C122.298 279.613 123.241 285.365 124.278 290.269C124.655 292.155 125.598 293.569 135.217 298.002C138.235 299.416 142.101 301.114 145.307 302.151C146.062 310.732 147.099 319.597 148.514 328.744C110.039 318.842 83.3511 306.677 64.868 293.947ZM138.046 334.874C138.423 334.591 138.801 334.402 139.083 334.119C142.573 335.062 146.25 336.1 149.928 336.948C151.626 345.907 153.795 354.96 156.435 363.919C154.832 365.805 152.852 367.879 150.588 370.142C142.478 355.809 124.372 355.243 109.85 356.657C119.846 347.039 130.691 339.777 138.046 334.874ZM85.0486 410.221C85.0486 392.115 92.4041 377.309 102.117 365.427C119.94 362.881 138.801 361.75 145.119 375.801C127.956 392.115 101.268 413.238 85.8973 419.274C85.3315 416.539 85.0486 413.521 85.0486 410.221ZM127.862 444.264C123.429 445.678 119.469 445.961 115.98 445.961C104.475 445.961 92.8756 439.831 87.689 426.535C98.628 422.386 114.376 411.447 128.993 399.659C134.934 407.58 136.254 413.993 136.16 418.236C136.066 430.684 133.048 437.38 127.862 444.264ZM140.121 438.323C142.384 433.042 143.704 426.724 143.799 418.425C143.893 412.955 142.29 404.751 134.934 394.944C144.459 386.928 153.134 378.818 159.17 372.406C162.659 382.496 166.808 392.303 171.806 401.639C159.924 420.971 149.362 432.004 140.121 438.323ZM320.897 408.146C318.823 410.032 284.497 435.399 284.497 435.399L248.568 408.146C234.328 408.618 198.399 403.903 173.032 387.023C168.317 376.555 164.451 365.427 161.433 353.923C171.429 360.618 208.678 381.836 253.472 383.156C264.693 392.398 284.591 403.902 284.591 403.902L315.428 382.685C332.874 382.307 363.427 379.195 406.052 355.714C403.034 366.936 399.168 377.781 394.453 387.966C383.891 394.755 356.543 408.429 320.897 408.146ZM396.622 400.602C401.62 391.36 405.675 381.459 409.069 371.463C415.105 378.064 424.158 386.457 434.154 394.944C426.704 404.751 425.195 412.955 425.195 418.425C425.289 426.724 426.704 433.042 428.873 438.323C419.537 431.91 408.692 420.594 396.622 400.602ZM452.92 446.055C449.525 446.055 445.564 445.678 441.038 444.358C435.851 437.474 432.834 430.778 432.645 418.331C432.551 414.181 433.871 407.675 439.812 399.753C454.429 411.541 470.177 422.386 481.116 426.629C476.024 439.926 464.425 446.055 452.92 446.055ZM466.971 365.427C476.684 377.309 484.039 392.115 484.039 410.221C484.039 413.521 483.756 416.445 483.285 419.274C467.914 413.238 441.226 392.115 424.063 375.801C430.287 361.75 449.148 362.881 466.971 365.427ZM459.049 356.846C444.527 355.337 426.421 355.997 418.311 370.331C415.671 367.691 413.407 365.239 411.616 363.07C414.162 354.488 416.142 345.907 417.84 337.325C421.989 336.288 425.949 335.251 429.91 334.119C430.287 334.308 430.57 334.591 430.947 334.874C438.303 339.777 449.148 347.039 459.049 356.846ZM419.254 329.215C420.763 320.163 421.8 311.204 422.555 302.717C425.855 301.679 430.382 299.699 433.776 298.096C443.395 293.664 444.338 292.155 444.716 290.363C445.659 285.46 446.602 279.707 447.45 273.295C449.713 272.163 451.977 271.031 454.051 269.9C464.33 291.495 484.228 294.041 501.297 294.041C502.24 294.041 503.183 294.041 504.126 294.041C485.454 306.772 458.389 319.125 419.254 329.215ZM514.31 286.214C512.518 286.214 510.727 286.308 508.841 286.308C490.829 286.78 470.46 287.251 460.652 266.316C516.762 235.762 529.493 214.733 534.491 202.568C542.884 213.507 543.544 227.558 543.544 231.802C543.544 245.664 538.357 266.033 514.31 286.214Z" fill="#1E1E1E"/>
</svg>
