<svg width="570" height="510" viewBox="0 0 570 510" fill="none" xmlns="http://www.w3.org/2000/svg">
<path d="M84.9601 328.003L108.093 302.988C112.205 258.955 130.54 215.607 179.889 192.476C229.239 169.346 326.396 166.091 400.934 176.885C475.472 187.679 493.122 255.528 493.122 309.67C493.122 382.66 464.677 441.771 390.139 448.11C310.974 454.792 264.023 450.851 235.579 446.225C207.134 441.599 129.34 422.067 112.548 356.959L84.9601 328.003Z" fill="#1E1E1E"/>
<path d="M492.95 309.67C492.95 382.66 464.506 441.942 389.968 448.11C332.222 453.079 291.783 452.222 262.995 449.652C260.254 445.54 256.827 440.571 252.886 434.232C247.06 424.98 240.72 412.986 235.065 396.709C227.868 375.635 222.214 347.364 222.214 308.814C222.214 249.017 245.346 198.987 259.054 179.626C260.768 177.056 262.481 175 263.852 173.629C264.195 173.287 264.366 173.115 264.538 172.944C276.018 171.916 287.67 171.231 299.665 170.888C300.008 170.888 300.522 170.888 300.864 170.888C322.283 170.374 344.045 171.059 365.121 172.601C377.287 173.629 389.282 174.829 400.763 176.542C408.131 177.57 414.985 179.283 421.325 181.339C435.205 185.966 446.685 193.162 455.938 201.9C459.708 205.327 462.964 209.096 466.048 213.037C486.782 240.45 492.95 277.459 492.95 309.67Z" fill="#FFCC01"/>
<path d="M223.07 441.428C221.357 441.085 190.342 432.518 188.286 429.434C186.401 426.35 184.173 422.067 181.946 416.755C178.176 408.017 174.235 396.366 170.979 381.803C166.867 363.47 163.954 340.34 163.954 312.754C163.954 231.37 183.831 202.414 189.485 192.134C189.485 192.134 216.045 184.424 220.5 182.71C212.275 194.532 189.314 245.077 189.314 316.181C189.314 345.994 193.769 370.495 199.595 389.856C204.393 405.79 210.047 418.126 214.845 427.207C218.101 433.546 221.014 438.344 223.07 441.428Z" fill="#FFCC01"/>
<path d="M199.595 389.856C204.393 405.79 210.047 418.126 214.845 427.207C200.794 423.78 189.828 420.011 182.117 416.755C178.347 408.017 174.406 396.366 171.15 381.803C177.49 384.03 187.258 386.943 199.595 389.856Z" fill="#F69421"/>
<path d="M462.792 387.114C462.792 394.482 442.23 418.297 425.095 424.98C400.591 434.403 364.093 438.858 320.741 438.858C295.038 438.858 272.42 437.144 252.714 434.403C246.888 425.151 240.548 413.157 234.894 396.88C262.31 401.335 296.238 404.933 334.792 404.933C424.238 404.933 441.887 382.317 455.938 382.317C462.107 382.488 462.792 382.831 462.792 387.114Z" fill="#F69421"/>
<path d="M486.953 272.148C471.703 238.566 456.11 215.264 431.092 204.299C406.075 193.504 379.172 186.994 314.915 182.539C289.555 180.825 272.248 179.969 259.226 179.797C260.939 177.227 262.653 175.171 264.023 173.801C275.675 172.43 287.841 171.402 299.836 171.059C300.179 171.059 300.693 171.059 301.036 171.059C304.634 171.059 308.232 170.888 311.659 171.059C327.424 171.402 346.958 171.745 365.293 172.773C387.569 174.143 407.96 176.199 417.727 180.14C418.926 180.654 420.126 181.168 421.325 181.682C432.977 186.651 446 193.504 455.938 202.242C459.879 205.669 463.306 209.439 466.048 213.379C466.562 214.236 467.076 215.093 467.59 215.778C477.357 232.398 483.183 245.933 483.183 245.933L486.953 272.148Z" fill="#FCF294"/>
<path d="M339.59 216.806C391.338 216.806 446.171 228.971 460.051 259.983C467.247 276.26 467.59 339.483 460.736 353.532C454.225 366.897 425.78 393.111 343.874 393.111C274.133 393.111 256.655 372.379 253.4 336.741C251.857 319.95 252.029 275.574 254.77 257.584C260.425 219.89 308.232 216.806 339.59 216.806Z" fill="#1E1E1E"/>
<path d="M315.086 250.731C340.618 250.731 349.528 281.914 349.528 308.985C349.528 320.293 349.871 332.115 347.815 338.797C342.846 335.028 335.649 332.458 324.339 332.458C313.03 332.458 302.235 338.112 299.322 345.48C294.524 337.598 285.271 317.038 285.271 293.907C285.442 270.606 294.01 250.731 315.086 250.731Z" fill="#6AC6FF"/>
<path d="M414.985 261.011C429.207 261.011 440.859 274.032 440.859 300.932C440.859 319.779 434.348 340.339 430.921 343.938C428.693 341.539 420.64 332.458 408.816 332.458C396.993 332.458 389.796 337.598 387.74 339.654C385.17 332.458 384.313 319.436 384.313 307.614C384.142 283.113 391.681 261.011 414.985 261.011Z" fill="#6AC6FF"/>
<path d="M250.487 57.806C210.904 57.806 196.511 84.1918 196.511 104.752C196.511 114.347 198.567 123.599 203.022 132.337H202.851C182.802 130.11 145.448 142.275 145.448 172.601C145.448 186.308 150.588 196.76 159.67 202.928L183.145 191.448L216.216 182.025L246.888 175.171L248.43 174.829C254.256 173.972 294.353 170.717 315.772 170.717C337.191 170.717 387.226 173.458 387.226 173.458C379.858 157.866 318.342 57.806 250.487 57.806Z" fill="#87E86B"/>
<path d="M185.715 190.078C184.173 185.794 182.46 175.343 185.544 168.832C188.628 162.321 198.395 151.356 215.702 152.384C220.329 156.838 245.689 174.486 245.689 174.486L219.814 180.311L185.715 190.078Z" fill="#1E1E1E" fill-opacity="0.4"/>
<path d="M270.363 171.573C262.138 164.891 240.377 142.789 240.377 122.228C240.377 101.668 259.74 89.8459 279.616 89.8459C299.493 89.8459 320.398 102.696 328.623 108.864C341.989 118.802 367.178 146.387 383.113 171.059C380.2 171.745 365.121 171.402 365.121 171.402L319.542 170.203L290.583 170.888L270.363 171.573Z" fill="#1E1E1E" fill-opacity="0.4"/>
<path d="M479.413 123.599C479.413 134.051 473.416 145.187 460.222 147.072C458.851 147.244 457.652 147.415 456.11 147.415C448.741 147.415 443.601 144.673 440.516 140.733C436.918 136.449 435.547 130.795 435.547 125.312C435.547 110.578 449.084 101.668 458.851 101.668C472.217 101.668 479.413 112.976 479.413 123.599Z" fill="#FFCC01"/>
<path d="M454.739 105.78C459.879 105.78 463.306 111.263 463.306 115.546C463.306 122.571 458.337 127.54 452.511 127.54C446.685 127.54 442.573 122.742 442.573 117.945C442.401 112.291 445.657 105.78 454.739 105.78Z" fill="#FFF68F"/>
<path d="M348.329 108.35C348.329 109.55 348.157 110.92 348.157 112.12C347.815 115.032 346.958 117.431 345.587 119.658C344.216 122.228 342.16 124.284 339.761 125.826C336.334 128.054 331.879 129.425 326.91 129.425C325.71 129.425 324.682 129.425 323.654 129.253C321.941 129.082 320.398 128.739 319.028 128.225C318.171 127.883 317.485 127.54 316.629 127.197C308.918 123.256 305.319 114.861 305.319 106.808C305.319 100.297 308.918 93.4439 314.572 88.9892C316.457 87.4472 318.685 86.2478 321.084 85.5625C322.969 85.0485 324.854 84.7058 326.91 84.7058C342.674 84.5345 348.329 97.3847 348.329 108.35Z" fill="#FFCC01"/>
<path d="M321.426 89.6746C326.396 89.6746 331.194 95.1573 331.194 100.811C331.194 105.952 328.109 112.12 321.255 112.12C314.915 112.12 310.631 107.322 310.631 101.668C310.631 95.6713 313.544 89.6746 321.426 89.6746Z" fill="#FFF68F"/>
<path d="M444.629 189.05L459.537 154.611C459.537 154.44 459.537 154.44 459.708 154.268C477.186 152.555 486.268 137.991 486.268 123.77C486.268 109.55 475.986 94.986 458.851 94.986C446.514 94.986 428.693 105.951 428.693 125.484C428.693 133.365 431.263 141.418 436.747 146.901L423.039 178.769C416.356 176.542 409.159 174.829 401.277 173.629C397.678 173.115 394.08 172.601 390.31 172.087C386.54 164.206 372.661 141.418 353.469 118.459C354.498 115.375 355.183 111.948 355.183 108.35C355.183 93.1013 346.444 77.681 326.91 77.681C322.797 77.681 318.685 78.709 315.086 80.5937C296.238 66.0301 273.962 54.3793 250.658 54.3793C211.247 54.3793 193.255 80.5937 193.255 104.752C193.255 113.148 194.797 121.029 197.71 128.568C184.345 128.568 167.038 133.537 155.386 143.988C146.818 151.698 142.192 161.464 142.192 172.43C142.192 185.451 146.647 196.246 154.872 203.27C125.742 225.03 108.949 257.927 104.666 301.275L80.1622 327.832L109.121 358.672C116.66 387.286 136.366 410.416 167.723 427.207C195.14 442.113 223.756 447.767 234.722 449.481C257.512 453.079 283.215 454.963 312.345 454.963C335.991 454.963 361.866 453.764 390.139 451.365C458.68 445.54 496.377 395.167 496.377 309.499C496.377 273.69 488.667 217.149 444.629 189.05ZM435.547 125.312C435.547 110.578 449.084 101.668 458.851 101.668C472.217 101.668 479.414 112.976 479.414 123.599C479.414 134.051 473.416 145.187 460.222 147.072C458.851 147.244 457.652 147.415 456.11 147.415C448.741 147.415 443.601 144.673 440.516 140.733C436.918 136.621 435.547 130.967 435.547 125.312ZM382.085 171.059C370.091 169.689 357.753 168.832 345.073 168.147C344.045 158.552 343.017 146.558 341.989 132.337C345.245 130.453 347.986 128.054 350.214 124.97C365.635 143.817 376.945 161.807 382.085 171.059ZM314.572 88.8179C316.457 87.2758 318.685 86.0765 321.084 85.3911C322.969 84.8771 324.854 84.5344 326.91 84.5344C342.674 84.5344 348.329 97.3847 348.329 108.35C348.329 109.55 348.158 110.92 348.158 112.12C347.815 115.032 346.958 117.431 345.587 119.658C344.216 122.228 342.16 124.284 339.761 125.826C336.334 128.054 331.879 129.425 326.91 129.425C325.71 129.425 324.682 129.425 323.654 129.253C321.941 129.082 320.398 128.739 319.028 128.225C318.171 127.883 317.485 127.54 316.629 127.197C308.918 123.256 305.319 114.861 305.319 106.808C305.319 100.126 308.918 93.1013 314.572 88.8179ZM306.005 149.814C306.69 149.128 307.376 148.272 308.232 147.415C311.659 143.474 315.258 139.533 318.171 135.935C318.856 146.729 319.542 155.639 320.398 163.006C315.258 158.38 310.46 153.926 306.005 149.814ZM315.258 167.633C292.811 167.633 270.192 168.832 249.287 171.402C232.152 161.636 219.472 151.184 211.247 139.533C216.902 141.761 224.27 143.303 234.894 143.303C253.4 143.303 265.566 134.565 271.22 126.169C285.271 140.219 300.693 154.44 315.258 167.633ZM250.487 61.2327C270.878 61.2327 290.926 70.8276 308.918 84.5344C302.578 89.8459 298.294 98.07 298.294 106.637C298.294 116.746 302.92 127.026 312.002 132.337C308.746 136.107 305.319 140.047 302.92 142.789C302.064 143.645 301.378 144.502 300.864 145.187C247.06 95.1573 233.523 73.2263 230.61 63.9741C236.436 62.2607 242.947 61.2327 250.487 61.2327ZM224.441 66.3728C228.725 79.5657 245.517 99.612 266.422 121.029C261.967 128.739 250.658 136.278 235.065 136.278C218.444 136.278 210.561 132.68 204.564 127.026C201.651 119.83 200.109 112.462 200.109 104.581C199.938 92.9299 205.592 75.111 224.441 66.3728ZM200.794 135.593C208.163 149.3 220.671 161.636 238.492 172.944C229.924 174.315 221.699 175.857 213.989 177.57C195.311 169.689 172.693 155.982 164.468 145.53C175.606 138.163 190.342 134.907 200.794 135.593ZM148.875 172.601C148.875 163.863 152.302 156.153 159.156 149.814C167.209 159.922 186.229 171.916 203.536 180.311C194.283 182.881 185.887 185.965 178.347 189.392C172.007 192.305 166.181 195.56 160.527 199.33C152.987 193.676 148.875 184.423 148.875 172.601ZM389.625 444.855C327.081 450.166 276.875 449.652 235.922 443.141C218.786 440.4 132.939 423.609 115.632 356.445L115.461 355.588L89.5866 328.175L111.348 304.53L111.52 303.331C116.318 251.245 139.793 214.921 181.432 195.56C214.845 179.969 268.65 173.801 321.769 174.486C323.997 192.476 325.882 197.959 326.91 200.872L327.081 201.214C328.795 206.183 333.421 209.267 338.39 209.267C339.761 209.267 340.961 209.096 342.332 208.582C348.5 206.355 351.927 199.672 349.7 193.333L349.528 192.99C348.329 189.564 347.129 183.567 346.101 175.343C365.121 176.199 383.627 177.913 400.591 180.483C407.788 181.511 414.471 183.224 420.64 185.28L412.757 203.784C410.187 209.953 412.929 216.977 419.097 219.547C420.64 220.233 422.182 220.575 423.895 220.575C428.522 220.575 432.977 217.834 434.862 213.379L442.401 195.903C483.012 222.803 490.037 276.088 490.037 310.184C489.523 356.959 476.672 437.487 389.625 444.855Z" fill="#1E1E1E"/>
<path d="M66.1113 194.018C64.3978 194.018 63.027 192.819 62.6843 191.106C62.3416 189.221 63.7124 187.508 65.5973 187.165C75.193 185.794 98.1542 186.308 98.3256 186.308C100.21 186.308 101.753 187.85 101.753 189.735C101.753 191.62 100.21 193.162 98.3256 193.162C92.4996 192.99 74.3362 192.819 66.6254 193.847C66.454 194.018 66.2827 194.018 66.1113 194.018Z" fill="#1E1E1E"/>
<path d="M46.5771 211.323C44.8636 211.323 43.3214 209.953 43.1501 208.239C42.9787 206.354 44.3495 204.641 46.2344 204.47C65.94 202.242 91.9855 202.585 105.865 202.756C108.607 202.756 110.834 202.756 112.376 202.756C114.261 202.756 115.804 204.298 115.804 206.183C115.804 208.068 114.261 209.61 112.376 209.61C110.834 209.61 108.607 209.61 105.694 209.61C91.9855 209.439 66.2827 209.096 46.9198 211.323C46.7485 211.323 46.5771 211.323 46.5771 211.323Z" fill="#1E1E1E"/>
<path d="M70.3951 229.485C68.6816 229.485 67.3108 228.286 66.9681 226.572C66.6254 224.687 67.9962 222.974 69.8811 222.631C79.4768 221.089 97.2975 221.261 102.781 221.432C104.666 221.432 106.208 223.145 106.036 225.03C106.036 226.915 104.323 228.457 102.438 228.286C97.4688 228.114 79.9909 227.943 70.9092 229.314C70.7378 229.485 70.5665 229.485 70.3951 229.485Z" fill="#1E1E1E"/>
<path d="M55.3161 383.002C53.4312 383.002 52.0604 381.631 51.889 379.747C51.7177 377.862 53.2598 376.32 55.1447 376.149C67.3107 375.463 94.8985 375.292 104.323 375.635C106.208 375.806 107.75 377.348 107.579 379.233C107.407 381.117 105.865 382.659 103.98 382.488C94.8985 381.974 67.3107 382.317 55.4874 383.002H55.3161Z" fill="#1E1E1E"/>
<path d="M105.008 405.105H104.837C97.6401 404.591 80.5049 404.591 74.1648 404.591C72.28 404.591 70.7378 403.048 70.7378 401.164C70.7378 399.279 72.28 397.737 74.1648 397.737C80.6762 397.737 97.9828 397.737 105.351 398.251C107.236 398.422 108.607 399.964 108.607 401.849C108.264 403.734 106.893 405.105 105.008 405.105Z" fill="#1E1E1E"/>
<path d="M123.172 97.5561C121.458 97.5561 119.916 96.1854 119.745 94.472C119.573 92.5873 120.944 90.874 122.829 90.874C136.023 89.846 167.038 89.846 176.805 90.36C178.69 90.5313 180.061 92.0733 180.061 93.958C179.889 95.8427 178.347 97.2134 176.462 97.2134C167.038 96.6994 136.023 96.6994 123.343 97.7274C123.343 97.5561 123.343 97.5561 123.172 97.5561Z" fill="#1E1E1E"/>
<path d="M176.976 118.973C176.805 118.973 176.805 118.973 176.976 118.973C169.094 118.63 149.56 117.945 142.706 118.459C140.65 118.63 139.107 117.088 138.936 115.204C138.765 113.319 140.307 111.606 142.192 111.606C150.245 111.092 171.836 111.777 177.148 112.12C179.033 112.291 180.575 113.833 180.403 115.718C180.232 117.602 178.69 118.973 176.976 118.973Z" fill="#1E1E1E"/>
<path d="M470.16 194.19C468.447 194.19 466.905 192.819 466.733 190.934C466.562 189.05 468.104 187.336 469.989 187.336C478.385 186.822 508.886 186.822 520.538 187.165C522.423 187.165 523.965 188.878 523.794 190.763C523.794 192.648 522.252 194.018 520.367 194.018C520.367 194.018 520.367 194.018 520.195 194.018C507.515 193.676 478.043 193.676 470.332 194.19H470.16Z" fill="#1E1E1E"/>
<path d="M521.223 216.463C512.999 216.121 494.15 215.949 488.152 216.121C488.152 216.121 488.152 216.121 487.981 216.121C486.096 216.121 484.554 214.579 484.554 212.865C484.554 210.981 485.925 209.439 487.81 209.267C493.978 209.096 512.999 209.267 521.223 209.61C523.108 209.61 524.651 211.323 524.479 213.208C524.651 214.921 523.108 216.463 521.223 216.463Z" fill="#1E1E1E"/>
</svg>
