<svg width="64" height="64" viewBox="0 0 64 64" fill="none" xmlns="http://www.w3.org/2000/svg">
<path d="M43.3632 24.2258C43.3632 18.2085 38.4879 13.3333 32.4707 13.3333C26.4534 13.3333 21.5781 18.2085 21.5781 24.2258C21.5781 27.8625 23.3613 31.0864 26.102 33.0628C26.0845 33.0716 26.0713 33.076 26.0625 33.0804C24.0992 33.9105 22.338 35.1008 20.8227 36.6205C19.3074 38.1358 18.1215 39.9014 17.2914 41.8691C16.4788 43.7929 16.044 45.8352 16.0001 47.9347C15.9957 48.1323 16.1538 48.2948 16.3515 48.2948H18.9824C19.1712 48.2948 19.3293 48.1411 19.3337 47.9522C19.4216 44.5615 20.7788 41.386 23.1813 38.9791C25.6628 36.4887 28.957 35.1183 32.4707 35.1183C38.4879 35.1183 43.3632 30.2431 43.3632 24.2258ZM32.4707 31.7803C28.2981 31.7803 24.9162 28.3983 24.9162 24.2258C24.9162 20.0533 28.2981 16.6713 32.4707 16.6713C36.6432 16.6713 40.0252 20.0533 40.0252 24.2258C40.0252 28.3983 36.6432 31.7803 32.4707 31.7803ZM37.0824 41.487H48.6777C48.871 41.487 49.0291 41.3289 49.0291 41.1356V38.676C49.0291 38.4827 48.871 38.3246 48.6777 38.3246H40.9256L42.9987 35.6849C43.047 35.6234 43.0733 35.5444 43.0733 35.4697C43.0733 35.2765 42.9152 35.1183 42.722 35.1183H39.5333C39.318 35.1183 39.116 35.2194 38.9799 35.3863L35.9712 39.2118C35.778 39.4578 35.6726 39.7653 35.6726 40.0815C35.677 40.8589 36.305 41.487 37.0824 41.487ZM47.6236 44.298H36.0283C35.8351 44.298 35.677 44.4561 35.677 44.6493V47.1089C35.677 47.3022 35.8351 47.4603 36.0283 47.4603H43.7805L41.7074 50.1C41.6591 50.1615 41.6327 50.2405 41.6327 50.3152C41.6327 50.5085 41.7908 50.6666 41.9841 50.6666H45.1728C45.388 50.6666 45.59 50.5656 45.7262 50.3987L48.7348 46.5731C48.9281 46.3271 49.0335 46.0197 49.0335 45.7034C49.0291 44.926 48.401 44.298 47.6236 44.298Z" fill="#1E1E1E"/>
</svg>
