<svg viewBox="0 0 36 36" xmlns="http://www.w3.org/2000/svg">
<path d="M16.268 3C17.0378 1.66666 18.9623 1.66667 19.7321 3L31.8564 24C32.6262 25.3333 31.664 27 30.1244 27H5.87564C4.33604 27 3.37379 25.3333 4.14359 24L16.268 3Z" fill="#D64635"/>
<path d="M16.4658 18.98V7.69995H19.5378V18.98H16.4658ZM18.0018 24.836C17.3618 24.836 16.8178 24.628 16.3698 24.212C15.9378 23.78 15.7218 23.228 15.7218 22.556C15.7218 21.884 15.9378 21.34 16.3698 20.924C16.8178 20.492 17.3618 20.276 18.0018 20.276C18.6578 20.276 19.2018 20.492 19.6338 20.924C20.0658 21.34 20.2818 21.884 20.2818 22.556C20.2818 23.228 20.0658 23.78 19.6338 24.212C19.2018 24.628 18.6578 24.836 18.0018 24.836Z" fill="white"/>
</svg>
